<svg data-v-0dd9719b="" version="1.0" xmlns="http://www.w3.org/2000/svg" xmlns:xlink="http://www.w3.org/1999/xlink" width="100%" height="100%" viewBox="0 0 340.000000 250.000000" preserveAspectRatio="xMidYMid meet" color-interpolation-filters="sRGB" style="margin: auto;"> <rect data-v-0dd9719b="" x="0" y="0" width="100%" height="100%" fill="#fff" fill-opacity="1" class="background"></rect> <rect data-v-0dd9719b="" x="0" y="0" width="100%" height="100%" fill="url(#watermark)" fill-opacity="1" class="watermarklayer"></rect> <g data-v-0dd9719b="" fill="#e50012" class="icon-text-wrapper icon-svg-group iconsvg" transform="translate(48.224998474121094,100.33880805969238)"><g class="iconsvg-imagesvg" transform="translate(0,0.20154571533203125)"><g><rect fill="#e50012" fill-opacity="0" stroke-width="2" x="0" y="0" width="60" height="48.91929132253304" class="image-rect"></rect> <svg x="0" y="0" width="60" height="48.91929132253304" filtersec="colorsb9295164844" class="image-svg-svg primary" style="overflow: visible;"><svg version="1.1" id="图层_1" xmlns="http://www.w3.org/2000/svg" xmlns:xlink="http://www.w3.org/1999/xlink" x="0px" y="0px" viewBox="1.6299999952316284 0.9700000286102295 103.37000274658203 84.27999877929688" enable-background="new 0 0 106 86" xml:space="preserve">
<g>
	<polygon fill="#231815" points="81.11,85.25 39.73,85.25 63.62,39.01 105,39.01 	"></polygon>
	<polygon fill="#231815" points="104.85,33.41 63.47,33.41 30.37,0.97 71.75,0.97 	"></polygon>
	<polygon fill="#E50012" points="35.38,83.29 1.63,49.63 25.52,3.39 59.27,37.05 	"></polygon>
</g>
</svg></svg> <!----></g></g> <g transform="translate(67,0)"><g data-gra="path-name" fill-rule="" class="tp-name iconsvg-namesvg" transform="translate(0,0)"><g transform="scale(1)"><g><path d="M27.18-2.46L27.18-22.29 34.07-21.66Q33.96-20.81 32.73-20.64L32.73-20.64 32.73 1.23Q32.73 1.62 31.2 2.2 29.67 2.78 28.2 2.78L28.2 2.78 27.18 2.78 27.18-1.44 8.65-1.44 8.65 1.69Q8.65 1.9 8 2.27 7.35 2.64 6.26 2.94 5.17 3.23 4.18 3.23L4.18 3.23 3.2 3.23 3.2-22.18 9.98-21.55Q9.88-20.74 8.65-20.53L8.65-20.53 8.65-2.46 15.05-2.46 15.05-29.99 21.94-29.39Q21.83-28.51 20.6-28.34L20.6-28.34 20.6-2.46 27.18-2.46ZM52.31-25.98L52.31-20.21 54.49-20.21 54.49-25.98 52.31-25.98ZM63.67-11.92L63.67-19.23 59.31-19.23 59.31-13.04Q59.31-12.45 59.66-12.45L59.66-12.45 60.33-12.45Q60.79-12.45 61-12.73L61-12.73Q61.45-13.29 62.33-15.86L62.33-15.86 62.68-15.86 62.82-12.59Q63.42-12.27 63.67-11.92L63.67-11.92ZM44.19-5.2L44.19-1.58 63.67-1.58 63.67-9.25Q62.79-7.84 59.31-7.84L59.31-7.84 57.87-7.84Q55.69-7.84 55.09-8.63 54.49-9.42 54.49-11.71L54.49-11.71 54.49-19.23 52.31-19.23Q52.31-17.61 52.17-16.31 52.03-15.01 51.54-13.32 51.05-11.64 50.22-10.3 49.39-8.96 47.87-7.58 46.34-6.19 44.23-5.17L44.23-5.17 44.19-5.2ZM47.46-19.23L47.46-19.23 44.19-19.23 44.19-5.8Q46.2-8.47 46.83-11.74 47.46-15.01 47.46-19.23ZM69.93-25.98L59.31-25.98 59.31-20.21 63.49-20.21 66.02-23.13 70.52-19.58Q70.1-18.98 69.01-18.77L69.01-18.77 69.01 1.76Q69.01 1.9 68.5 2.21 67.99 2.53 66.92 2.81 65.85 3.09 64.62 3.09L64.62 3.09 63.67 3.09 63.67-0.56 44.19-0.56 44.19 1.97Q44.19 2.14 43.73 2.43 43.28 2.71 42.28 2.97 41.27 3.23 40.08 3.23L40.08 3.23 39.13 3.23 39.13-22.25 44.65-20.21 47.46-20.21 47.46-25.98 37.51-25.98 37.23-27 62.89-27 65.78-30.55Q69.01-28.2 70.98-26.58L70.98-26.58Q70.8-25.98 69.93-25.98L69.93-25.98ZM105.43-9.32L105.82-9.32 105.93-3.34Q106.8-2.92 107.1-2.46 107.4-2 107.4-1.27L107.4-1.27Q107.4 0.32 105.84 1.07 104.27 1.83 100.69 1.83L100.69 1.83 98.09 1.83Q95.38 1.83 94.48 0.95 93.59 0.07 93.59-2.46L93.59-2.46 93.59-20.29 88.38-20.29Q88.24-16.88 87.84-14.31 87.43-11.74 86.45-9.02 85.46-6.29 83.83-4.2 82.2-2.11 79.51-0.12 76.82 1.86 73.13 3.41L73.13 3.41 72.81 2.95Q75.83 0.63 77.85-1.97 79.88-4.57 80.93-7.59 81.98-10.62 82.41-13.52 82.83-16.42 82.93-20.29L82.93-20.29 74.67-20.29 74.36-21.27 82.97-21.27 82.97-30.62 89.89-30.02Q89.79-29.18 88.56-28.97L88.56-28.97Q88.49-23.87 88.42-21.27L88.42-21.27 93.13-21.27 95.59-24.12 100.09-20.5Q99.6-19.93 98.72-19.83L98.72-19.83 98.72-3.87Q98.72-3.45 98.91-3.27 99.11-3.09 99.6-3.09L99.6-3.09 101.32-3.09Q101.5-3.09 101.92-3.08 102.34-3.06 102.46-3.08 102.59-3.09 102.85-3.15 103.11-3.2 103.25-3.32 103.39-3.45 103.5-3.66L103.5-3.66Q103.92-4.43 105.43-9.32L105.43-9.32ZM118.86-8.09L118.86-0.42 133.14-0.42 133.14-8.09 118.86-8.09ZM119.18-9.11L132.79-9.11 135.04-11.6 139.75-8.05Q139.29-7.45 138.3-7.28L138.3-7.28 138.3 1.83Q138.27 2 137.58 2.32 136.9 2.64 135.86 2.9 134.82 3.16 134.02 3.16L134.02 3.16 133.14 3.16 133.14 0.56 118.86 0.56 118.86 1.76Q118.86 1.97 118.23 2.34 117.6 2.71 116.54 3.01 115.49 3.3 114.54 3.3L114.54 3.3 113.84 3.3 113.84-11.14 119.18-9.11ZM121.43-19.76L121.43-14.06 130.46-14.06 130.46-19.76 121.43-19.76ZM131.38-11.21L131.38-11.21 130.46-11.21 130.46-13.08 121.43-13.08 121.43-12.2Q121.43-11.99 120.8-11.64 120.16-11.29 119.09-10.99 118.02-10.69 117.07-10.69L117.07-10.69 116.4-10.69 116.4-22.75 121.64-20.78 130.11-20.78 132.33-23.2 137-19.72Q136.62-19.2 135.56-18.95L135.56-18.95 135.56-12.45Q135.53-12.3 134.86-12.01 134.19-11.71 133.17-11.46 132.15-11.21 131.38-11.21ZM136.37-25.49L138.87-28.05 143.23-23.91Q142.88-23.48 141.86-23.45L141.86-23.45Q139.75-21.66 136.9-20.29L136.9-20.29 136.65-20.5Q136.76-22.18 136.76-24.47L136.76-24.47 115-24.47Q115.31-22.61 114.86-21.23 114.4-19.86 113.41-19.2L113.41-19.2Q112.46-18.49 111.2-18.9 109.93-19.3 109.51-20.5L109.51-20.5Q108.91-22.78 111.3-23.87L111.3-23.87Q112.22-24.43 112.94-25.49 113.66-26.54 113.59-27.63L113.59-27.63 114.01-27.63Q114.61-26.19 114.79-25.49L114.79-25.49 124.95-25.49Q124.31-25.73 123.89-26.09L123.89-26.09Q123.96-27.39 123.47-28.67 122.98-29.95 122.1-30.69L122.1-30.69 122.31-30.9Q127.72-31.29 129.06-29.14L129.06-29.14Q129.9-27.81 128.81-26.44L128.81-26.44Q128.32-25.8 127.55-25.49L127.55-25.49 136.37-25.49ZM165.83-10.05L170.61-10.05 172.37-12.02Q170.12-13.36 168.54-14.87L168.54-14.87Q165.8-12.87 162.21-11.39L162.21-11.39 165.83-10.05ZM165.41-9.04L165.41-0.18 170.79-0.18 170.79-9.04 165.41-9.04ZM171.14-24.89L171.14-24.89 166.39-24.89Q165.69-23.77 164.67-22.57L164.67-22.57Q165.94-20.85 168.08-19.37L168.08-19.37Q169.91-21.83 171.14-24.89ZM171.04-25.88L173.71-28.37 177.93-24.61Q177.64-24.15 176.41-24.01L176.41-24.01Q174.62-20.46 171.63-17.51L171.63-17.51Q175.15-16.03 179.75-15.4L179.75-15.4 179.68-15.01Q176.84-13.85 176.48-10.27L176.48-10.27 175.82-10.48 177.26-9.39Q176.87-8.89 175.85-8.68L175.85-8.68 175.85 1.93Q175.85 2.04 175.38 2.27 174.9 2.5 173.88 2.72 172.86 2.95 171.67 2.95L171.67 2.95 170.79 2.95 170.79 0.84 165.41 0.84 165.41 2.29Q165.41 2.46 164.97 2.69 164.53 2.92 163.58 3.13 162.63 3.34 161.47 3.34L161.47 3.34 160.59 3.34 160.59-10.76Q158.48-10.02 156.48-9.53L156.48-9.53 156.27-9.98Q162.25-12.69 166.43-17.37L166.43-17.37Q165.02-19.37 163.97-21.83L163.97-21.83Q161.54-19.13 158.1-17.19L158.1-17.19 157.71-17.51Q159.15-19.58 159.79-20.81L159.79-20.81Q159.68-20.78 159.43-20.78L159.43-20.78 154.58-20.78 154.58-18.32Q158.66-16.98 159.33-14.59L159.33-14.59Q159.75-13.04 158.59-12.09L158.59-12.09Q157.39-11.11 155.99-12.02L155.99-12.02Q155.71-12.2 155.43-12.48L155.43-12.48Q155.57-14.8 154.58-17.3L154.58-17.3 154.58 1.9Q154.58 2.29 153.32 2.85 152.05 3.41 150.79 3.41L150.79 3.41 149.84 3.41 149.84-10.37Q147.62-7.31 145.02-5.1L145.02-5.1 144.6-5.48Q148.01-11 149.38-20.78L149.38-20.78 145.34-20.78 145.05-21.8 149.84-21.8 149.84-30.87 155.92-30.27Q155.81-29.39 154.58-29.21L154.58-29.21 154.58-21.8 154.86-21.8 156.9-24.86Q158.91-22.96 160.17-21.59L160.17-21.59Q162.39-26.02 163.3-30.62L163.3-30.62 169.52-28.48Q169.24-27.7 168.05-27.81L168.05-27.81Q167.59-26.86 166.99-25.88L166.99-25.88 171.04-25.88Z" transform="translate(-3.200000047683716, 30.959882736206055)"></path></g> <!----> <!----> <!----> <!----> <!----> <!----> <!----></g></g> <g data-gra="path-slogan" fill-rule="" class="tp-slogan iconsvg-slogansvg" fill="#e50012" transform="translate(27.359176635742188,40.3698844909668)"><!----> <!----> <g transform="scale(1, 1)"><g transform="scale(1)"><path d="M7.17-6.09L7.17-6.09L6.09-6.09Q6-7.73 3.94-7.83L3.94-7.83Q2.02-7.78 2.02-6.33L2.02-6.33Q2.02-5.39 3.05-5.25L3.05-5.25L5.48-4.69Q7.41-4.22 7.41-2.34L7.41-2.34Q7.36 0.05 4.03 0.14L4.03 0.14Q2.20 0.14 1.45-0.61L1.45-0.61Q0.52-1.31 0.56-2.77L0.56-2.77L1.69-2.77Q1.73-0.80 4.03-0.75L4.03-0.75Q6.28-0.80 6.33-2.20L6.33-2.20Q6.52-3.38 4.45-3.75L4.45-3.75L2.67-4.13Q0.84-4.64 0.84-6.19L0.84-6.19Q0.98-8.72 3.84-8.81L3.84-8.81Q7.08-8.81 7.17-6.09ZM10.03-5.06L14.53-5.06L14.53-8.58L15.70-8.58L15.70 0L14.53 0L14.53-3.98L10.03-3.98L10.03 0L8.86 0L8.86-8.58L10.03-8.58L10.03-5.06ZM23.16 0L22.31-2.48L18.84-2.48L17.95 0L16.78 0L20.02-8.58L21.33-8.58L24.42 0L23.16 0ZM20.58-7.31L19.22-3.52L21.89-3.52L20.63-7.31L20.58-7.31ZM26.86-8.58L31.17-1.64L31.17-8.58L32.30-8.58L32.30 0L30.98 0L26.63-6.94L26.58-6.94L26.58 0L25.45 0L25.45-8.58L26.86-8.58ZM40.83-8.58L37.92-4.41L40.97 0L39.52 0L37.17-3.52L34.83 0L33.42 0L36.52-4.41L33.61-8.58L35.06-8.58L37.22-5.30L39.42-8.58L40.83-8.58ZM42.23-8.58L43.41-8.58L43.41 0L42.23 0L42.23-8.58ZM48-1.92L48-2.77L49.08-2.77L49.08-2.16Q49.08-0.75 50.39-0.75L50.39-0.75Q51.75-0.75 51.75-2.25L51.75-2.25L51.75-8.58L52.92-8.58L52.92-2.30Q52.88 0.09 50.44 0.14L50.44 0.14Q48.14 0.09 48-1.92L48-1.92ZM54.89-8.58L56.06-8.58L56.06 0L54.89 0L54.89-8.58ZM63.70-3.19L63.70-8.58L64.88-8.58L64.88-3.05Q64.73 0.05 61.36 0.14L61.36 0.14Q58.22 0.05 58.08-2.86L58.08-2.86L58.08-8.58L59.25-8.58L59.25-3.19Q59.30-0.84 61.41-0.80L61.41-0.80Q63.70-0.84 63.70-3.19L63.70-3.19ZM73.08-3.61L70.45-3.61L70.45-4.59L74.20-4.59L74.20 0L73.45 0L73.17-1.08Q72.19 0.09 70.36 0.14L70.36 0.14Q68.63 0.14 67.69-0.75L67.69-0.75Q66.28-2.06 66.33-4.36L66.33-4.36Q66.66-8.63 70.41-8.81L70.41-8.81Q73.59-8.63 74.06-6L74.06-6L72.94-6Q72.47-7.78 70.36-7.83L70.36-7.83Q67.69-7.64 67.55-4.31L67.55-4.31Q67.55-0.75 70.41-0.75L70.41-0.75Q71.44-0.75 72.19-1.31L72.19-1.31Q73.13-2.06 73.08-3.61L73.08-3.61ZM82.78-4.27L82.78-4.27Q82.59-7.64 79.78-7.83L79.78-7.83Q76.92-7.69 76.78-4.27L76.78-4.27Q76.92-0.94 79.78-0.80L79.78-0.80Q82.59-0.98 82.78-4.27ZM83.95-4.27L83.95-4.27Q83.67 0 79.78 0.14L79.78 0.14Q75.84 0 75.56-4.27L75.56-4.27Q75.80-8.72 79.78-8.81L79.78-8.81Q83.67-8.67 83.95-4.27ZM86.72-8.58L91.03-1.64L91.03-8.58L92.16-8.58L92.16 0L90.84 0L86.48-6.94L86.44-6.94L86.44 0L85.31 0L85.31-8.58L86.72-8.58ZM100.36-3.61L97.73-3.61L97.73-4.59L101.48-4.59L101.48 0L100.73 0L100.45-1.08Q99.47 0.09 97.64 0.14L97.64 0.14Q95.91 0.14 94.97-0.75L94.97-0.75Q93.56-2.06 93.61-4.36L93.61-4.36Q93.94-8.63 97.69-8.81L97.69-8.81Q100.88-8.63 101.34-6L101.34-6L100.22-6Q99.75-7.78 97.64-7.83L97.64-7.83Q94.97-7.64 94.83-4.31L94.83-4.31Q94.83-0.75 97.69-0.75L97.69-0.75Q98.72-0.75 99.47-1.31L99.47-1.31Q100.41-2.06 100.36-3.61L100.36-3.61ZM113.02-3.61L110.39-3.61L110.39-4.59L114.14-4.59L114.14 0L113.39 0L113.11-1.08Q112.13 0.09 110.30 0.14L110.30 0.14Q108.56 0.14 107.63-0.75L107.63-0.75Q106.22-2.06 106.27-4.36L106.27-4.36Q106.59-8.63 110.34-8.81L110.34-8.81Q113.53-8.63 114-6L114-6L112.88-6Q112.41-7.78 110.30-7.83L110.30-7.83Q107.63-7.64 107.48-4.31L107.48-4.31Q107.48-0.75 110.34-0.75L110.34-0.75Q111.38-0.75 112.13-1.31L112.13-1.31Q113.06-2.06 113.02-3.61L113.02-3.61ZM117.23-1.03L122.39-1.03L122.39 0L116.06 0L116.06-8.58L122.30-8.58L122.30-7.59L117.23-7.59L117.23-4.92L121.92-4.92L121.92-3.89L117.23-3.89L117.23-1.03Z" transform="translate(-0.5602678571428572, 8.8125)"></path></g></g></g></g></g><defs v-gra="od"></defs></svg>